<svg width="223" height="93" viewBox="0 0 223 93" fill="none" xmlns="http://www.w3.org/2000/svg">
<path d="M110.415 15.1818H116.466V38.0795C116.466 39.7652 116.134 41.1288 115.472 42.1705C114.809 43.2121 113.857 43.9744 112.616 44.4574C111.385 44.9403 109.913 45.1818 108.199 45.1818C107.991 45.1818 107.792 45.1771 107.602 45.1676C107.403 45.1676 107.195 45.1629 106.977 45.1534V40.4233C107.138 40.4328 107.28 40.4375 107.403 40.4375C107.517 40.447 107.64 40.4517 107.773 40.4517C108.748 40.4517 109.43 40.2434 109.818 39.8267C110.216 39.4195 110.415 38.804 110.415 37.9801V15.1818ZM113.426 12.3693C112.536 12.3693 111.769 12.071 111.125 11.4744C110.481 10.8684 110.159 10.1439 110.159 9.30114C110.159 8.4678 110.481 7.75284 111.125 7.15625C111.769 6.55019 112.536 6.24716 113.426 6.24716C114.335 6.24716 115.107 6.55019 115.741 7.15625C116.385 7.75284 116.707 8.4678 116.707 9.30114C116.707 10.1439 116.385 10.8684 115.741 11.4744C115.107 12.071 114.335 12.3693 113.426 12.3693ZM135.305 27.7102V15.1818H141.356V37H135.546V33.0369H135.319C134.826 34.3153 134.007 35.3428 132.862 36.1193C131.725 36.8958 130.338 37.2841 128.7 37.2841C127.241 37.2841 125.958 36.9527 124.85 36.2898C123.742 35.6269 122.876 34.6847 122.251 33.4631C121.635 32.2415 121.323 30.7784 121.313 29.0739V15.1818H127.364V27.9943C127.374 29.2822 127.719 30.3002 128.401 31.0483C129.083 31.7964 129.997 32.1705 131.143 32.1705C131.872 32.1705 132.554 32.0047 133.188 31.6733C133.823 31.3324 134.334 30.8305 134.722 30.1676C135.12 29.5047 135.314 28.6856 135.305 27.7102ZM164.349 21.4034L158.81 21.7443C158.715 21.2708 158.511 20.8447 158.199 20.4659C157.886 20.0777 157.474 19.7699 156.963 19.5426C156.461 19.3059 155.86 19.1875 155.159 19.1875C154.222 19.1875 153.431 19.3864 152.787 19.7841C152.143 20.1723 151.821 20.6932 151.821 21.3466C151.821 21.8674 152.029 22.3078 152.446 22.6676C152.863 23.0275 153.578 23.3163 154.591 23.5341L158.54 24.3295C160.661 24.7652 162.242 25.4659 163.284 26.4318C164.326 27.3977 164.847 28.6667 164.847 30.2386C164.847 31.6686 164.425 32.9233 163.582 34.0028C162.749 35.0824 161.603 35.9252 160.145 36.5312C158.696 37.1278 157.025 37.4261 155.131 37.4261C152.242 37.4261 149.941 36.8248 148.227 35.6222C146.523 34.41 145.524 32.7623 145.23 30.679L151.182 30.3665C151.362 31.2472 151.797 31.9195 152.489 32.3835C153.18 32.8381 154.065 33.0653 155.145 33.0653C156.205 33.0653 157.058 32.8617 157.702 32.4545C158.355 32.0379 158.687 31.5028 158.696 30.8494C158.687 30.3002 158.455 29.8504 158 29.5C157.545 29.1402 156.845 28.8655 155.898 28.6761L152.119 27.9233C149.989 27.4972 148.402 26.7585 147.361 25.7074C146.329 24.6562 145.812 23.3163 145.812 21.6875C145.812 20.286 146.191 19.0786 146.949 18.0653C147.716 17.0521 148.791 16.2708 150.173 15.7216C151.565 15.1723 153.194 14.8977 155.06 14.8977C157.815 14.8977 159.984 15.4801 161.565 16.6449C163.156 17.8097 164.084 19.3958 164.349 21.4034ZM180.262 15.1818V19.7273H167.123V15.1818H180.262ZM170.106 9.95455H176.157V30.2955C176.157 30.8542 176.242 31.2898 176.413 31.6023C176.583 31.9053 176.82 32.1184 177.123 32.2415C177.435 32.3646 177.795 32.4261 178.202 32.4261C178.487 32.4261 178.771 32.4025 179.055 32.3551C179.339 32.2983 179.557 32.2557 179.708 32.2273L180.66 36.7301C180.357 36.8248 179.931 36.9337 179.381 37.0568C178.832 37.1894 178.165 37.2699 177.379 37.2983C175.92 37.3551 174.642 37.161 173.543 36.7159C172.454 36.2708 171.607 35.5795 171.001 34.642C170.395 33.7045 170.096 32.5208 170.106 31.0909V9.95455ZM122.02 59.1818V63.7273H108.881V59.1818H122.02ZM111.864 53.9545H117.915V74.2955C117.915 74.8542 118 75.2898 118.17 75.6023C118.341 75.9053 118.578 76.1184 118.881 76.2415C119.193 76.3646 119.553 76.4261 119.96 76.4261C120.244 76.4261 120.528 76.4025 120.812 76.3551C121.097 76.2983 121.314 76.2557 121.466 76.2273L122.418 80.7301C122.115 80.8248 121.688 80.9337 121.139 81.0568C120.59 81.1894 119.922 81.2699 119.136 81.2983C117.678 81.3551 116.4 81.161 115.301 80.7159C114.212 80.2708 113.365 79.5795 112.759 78.642C112.152 77.7045 111.854 76.5208 111.864 75.0909V53.9545ZM125.962 81V59.1818H131.828V62.9886H132.055C132.453 61.6345 133.121 60.6117 134.058 59.9205C134.996 59.2197 136.075 58.8693 137.297 58.8693C137.6 58.8693 137.927 58.8883 138.277 58.9261C138.627 58.964 138.935 59.0161 139.2 59.0824V64.4517C138.916 64.3665 138.523 64.2907 138.021 64.2244C137.519 64.1581 137.06 64.125 136.643 64.125C135.753 64.125 134.958 64.3191 134.257 64.7074C133.566 65.0862 133.017 65.6165 132.609 66.2983C132.212 66.9801 132.013 67.7661 132.013 68.6562V81H125.962ZM147.925 81.4119C146.533 81.4119 145.293 81.1705 144.204 80.6875C143.115 80.1951 142.253 79.4706 141.619 78.5142C140.994 77.5483 140.681 76.3456 140.681 74.9062C140.681 73.6941 140.904 72.6761 141.349 71.8523C141.794 71.0284 142.4 70.3655 143.167 69.8636C143.934 69.3617 144.805 68.983 145.781 68.7273C146.765 68.4716 147.798 68.2917 148.877 68.1875C150.146 68.0549 151.169 67.9318 151.945 67.8182C152.722 67.6951 153.285 67.5152 153.636 67.2784C153.986 67.0417 154.161 66.6913 154.161 66.2273V66.142C154.161 65.2424 153.877 64.5464 153.309 64.054C152.75 63.5616 151.955 63.3153 150.923 63.3153C149.834 63.3153 148.967 63.5568 148.323 64.0398C147.679 64.5133 147.253 65.1098 147.045 65.8295L141.448 65.375C141.732 64.0492 142.291 62.9034 143.124 61.9375C143.958 60.9621 145.032 60.214 146.349 59.6932C147.674 59.1629 149.209 58.8977 150.951 58.8977C152.163 58.8977 153.323 59.0398 154.431 59.3239C155.549 59.608 156.538 60.0483 157.4 60.6449C158.271 61.2415 158.958 62.0085 159.46 62.946C159.961 63.8741 160.212 64.9867 160.212 66.2841V81H154.474V77.9744H154.303C153.953 78.6562 153.484 79.2576 152.897 79.7784C152.31 80.2898 151.604 80.6922 150.781 80.9858C149.957 81.2699 149.005 81.4119 147.925 81.4119ZM149.658 77.2358C150.549 77.2358 151.335 77.0606 152.016 76.7102C152.698 76.3504 153.233 75.8674 153.621 75.2614C154.01 74.6553 154.204 73.9687 154.204 73.2017V70.8864C154.014 71.0095 153.754 71.1231 153.423 71.2273C153.101 71.322 152.736 71.4119 152.329 71.4972C151.922 71.5729 151.514 71.6439 151.107 71.7102C150.7 71.767 150.331 71.8191 149.999 71.8665C149.289 71.9706 148.669 72.1364 148.138 72.3636C147.608 72.5909 147.196 72.8987 146.903 73.2869C146.609 73.6657 146.462 74.1392 146.462 74.7074C146.462 75.5312 146.761 76.161 147.357 76.5966C147.963 77.0227 148.73 77.2358 149.658 77.2358ZM170.958 68.3864V81H164.907V59.1818H170.674V63.0312H170.93C171.413 61.7623 172.222 60.7585 173.359 60.0199C174.495 59.2718 175.873 58.8977 177.492 58.8977C179.007 58.8977 180.328 59.2292 181.455 59.892C182.582 60.5549 183.458 61.5019 184.083 62.733C184.708 63.9545 185.021 65.4129 185.021 67.108V81H178.969V68.1875C178.979 66.8523 178.638 65.8106 177.947 65.0625C177.255 64.3049 176.304 63.9261 175.092 63.9261C174.277 63.9261 173.558 64.1013 172.933 64.4517C172.317 64.8021 171.834 65.3134 171.484 65.9858C171.143 66.6487 170.968 67.4489 170.958 68.3864ZM207.943 65.4034L202.403 65.7443C202.309 65.2708 202.105 64.8447 201.793 64.4659C201.48 64.0777 201.068 63.7699 200.557 63.5426C200.055 63.3059 199.454 63.1875 198.753 63.1875C197.815 63.1875 197.025 63.3864 196.381 63.7841C195.737 64.1723 195.415 64.6932 195.415 65.3466C195.415 65.8674 195.623 66.3078 196.04 66.6676C196.456 67.0275 197.171 67.3163 198.185 67.5341L202.134 68.3295C204.255 68.7652 205.836 69.4659 206.878 70.4318C207.92 71.3977 208.44 72.6667 208.44 74.2386C208.44 75.6686 208.019 76.9233 207.176 78.0028C206.343 79.0824 205.197 79.9252 203.739 80.5312C202.29 81.1278 200.618 81.4261 198.724 81.4261C195.836 81.4261 193.535 80.8248 191.821 79.6222C190.116 78.41 189.117 76.7623 188.824 74.679L194.776 74.3665C194.955 75.2472 195.391 75.9195 196.082 76.3835C196.774 76.8381 197.659 77.0653 198.739 77.0653C199.799 77.0653 200.652 76.8617 201.295 76.4545C201.949 76.0379 202.28 75.5028 202.29 74.8494C202.28 74.3002 202.048 73.8504 201.594 73.5C201.139 73.1402 200.438 72.8655 199.491 72.6761L195.713 71.9233C193.582 71.4972 191.996 70.7585 190.955 69.7074C189.922 68.6562 189.406 67.3163 189.406 65.6875C189.406 64.286 189.785 63.0786 190.543 62.0653C191.31 61.0521 192.384 60.2708 193.767 59.7216C195.159 59.1723 196.788 58.8977 198.653 58.8977C201.409 58.8977 203.578 59.4801 205.159 60.6449C206.75 61.8097 207.678 63.3958 207.943 65.4034ZM215.788 81.3693C214.85 81.3693 214.045 81.0379 213.373 80.375C212.71 79.7027 212.379 78.8977 212.379 77.9602C212.379 77.0322 212.71 76.2367 213.373 75.5739C214.045 74.911 214.85 74.5795 215.788 74.5795C216.697 74.5795 217.492 74.911 218.174 75.5739C218.856 76.2367 219.197 77.0322 219.197 77.9602C219.197 78.5852 219.036 79.1581 218.714 79.679C218.401 80.1903 217.989 80.6023 217.478 80.9148C216.967 81.2178 216.403 81.3693 215.788 81.3693Z" fill="#36B5EB"/>
<path d="M10 13.5C10 9.35781 13.3578 6 17.5 6H57.5C61.6406 6 65 9.35781 65 13.5V46H95V61C97.7656 61 100 63.2344 100 66C100 68.7656 97.7656 71 95 71H90C90 79.2812 83.2812 86 75 86C66.5781 86 60 79.2812 60 71H40C40 79.2812 33.2812 86 25 86C16.5781 86 10 79.2812 10 71V51H32.5C33.875 51 35 49.875 35 48.5C35 47.125 33.875 46 32.5 46H2.5C1.11937 46 0 44.875 0 43.5C0 42.125 1.11937 41 2.5 41H37.5C38.875 41 40 39.875 40 38.5C40 37.125 38.875 36 37.5 36H7.5C6.11875 36 5 34.875 5 33.5C5 32.125 6.11875 31 7.5 31H42.5C43.875 31 45 29.875 45 28.5C45 27.125 43.875 26 42.5 26H2.5C1.11937 26 0 24.875 0 23.5C0 22.125 1.11937 21 2.5 21H10V13.5ZM25 78.5C29.1406 78.5 32.5 75.1406 32.5 71C32.5 66.8594 29.1406 63.5 25 63.5C20.8594 63.5 17.5 66.8594 17.5 71C17.5 75.1406 20.8594 78.5 25 78.5ZM75 63.5C70.8594 63.5 67.5 66.8594 67.5 71C67.5 75.1406 70.8594 78.5 75 78.5C79.1406 78.5 82.5 75.1406 82.5 71C82.5 66.8594 79.1406 63.5 75 63.5ZM72.9219 31H62.5V21H72.9219C75.5781 21 77.9844 22.0469 80 23.9219L92.0781 36C93.9531 37.875 95 40.4219 95 43.0781V51H85V43.0781L72.9219 31Z" fill="#36B5EB"/>
</svg>
